<?xml version="1.0" encoding="utf-8"?>
<!-- Generator: Adobe Illustrator 19.0.0, SVG Export Plug-In . SVG Version: 6.00 Build 0)  -->
<svg version="1.1" id="Layer_1" xmlns="http://www.w3.org/2000/svg" xmlns:xlink="http://www.w3.org/1999/xlink" x="0px" y="0px"
	 viewBox="0 0 612 792" style="enable-background:new 0 0 612 792;" xml:space="preserve">
<style type="text/css">
	.st0{fill:#FEFEFE;}
	.st1{fill:#EEB690;}
	.st2{fill:#FEEBDC;}
	.st3{fill:#FE6D00;}
	.st4{fill:#DA5E09;}
	.st5{fill:#DA5E0A;}
	.st6{fill:#FE6D01;}
	.st7{fill:#242021;}
	.st8{fill:#252122;}
	.st9{fill:#231F20;}
	.st10{fill:#282425;}
	.st11{fill:#262223;}
	.st12{fill:#272324;}
	.st13{fill:#292526;}
	.st14{fill:#E76E18;}
	.st15{fill:#FBFBFB;}
	.st16{fill:#F7F7F7;}
	.st17{fill:#FCFCFC;}
	.st18{fill:#F9F9F9;}
</style>
<g>
	<path class="st0" d="M31.9,383.8c0-10.7,0-21.4,0-32.1c182.9,0,365.8,0,548.7,0c0,41.6,0,83.2,0,124.8c-182.9,0-365.8,0-548.7,0
		c0-2.4,0-4.9,0-7.3c0.1,0,0.2,0,0.2,0c13.6,0,27.3,0,40.9,0c0.1,0,0.3,0,0.4-0.1c0-13.1,0-26.2,0-39.4c-0.3,0.1-0.5,0.2-0.6,0.3
		c-6.1,3.4-12.1,6.8-18.2,10.2c-7.5,4.2-15,8.5-22.5,12.7c-0.1,0-0.1,0-0.2,0c0-9.3,0-18.6,0-27.9l0.1,0.1c0,0,0.1,0,0.1,0
		c0.3-0.1,0.7-0.2,1-0.4c13.2-7.7,26.5-15.4,39.7-23.1c4.6-2.7,9.3-5.4,13.9-8.2c0.3,0.1,0.6,0.2,0.8,0.4
		c16.7,9.7,33.4,19.5,50,29.2c1.3,0.8,2.6,1.5,4.1,2.3c0-0.3,0-0.5,0-0.6c0-13.4,0-26.8,0-40.2c0-0.7-0.3-1-0.8-1.3
		c-17.7-10.3-35.5-20.7-53.2-31c-0.3-0.2-0.6-0.2-0.9-0.3c-0.2,0.1-0.4,0.2-0.6,0.3c-14.5,8.4-28.9,16.9-43.4,25.3
		c-3.5,2.1-7,4.1-10.5,6.2C32.1,383.8,32,383.8,31.9,383.8z M100.5,429.7c0,13.3,0,26.4,0,39.4c13.8,0,27.6,0,41.4,0
		c0-5.1,0-10,0-15c0-0.9-0.3-1.3-1-1.7c-8-4.5-16.1-9-24.1-13.6C111.4,435.9,106,432.9,100.5,429.7z M215.6,418
		c0-10.1,0-20.2,0-30.2c-2.2,0-4.3,0-6.5,0c0,6.8,0,13.4,0,20.4c-0.4-0.6-0.6-0.9-0.9-1.2c-4.4-6.2-8.7-12.3-13.1-18.5
		c-0.2-0.3-0.6-0.8-1-0.8c-2.3-0.1-4.6,0-6.9,0c0,10.1,0,20.2,0,30.2c2.1,0,4.3,0,6.5,0c0-6.9,0-13.7,0-20.7
		c0.4,0.5,0.6,0.8,0.8,1.1c4.4,6.3,8.8,12.7,13.3,19c0.2,0.3,0.7,0.7,1,0.7C211,418.1,213.3,418,215.6,418z M278.3,418
		c0.2,0,0.4,0,0.6,0c4.8,0,9.5,0.1,14.3-0.1c2.3-0.1,4.6-0.3,6.8-0.8c3.5-0.8,5.3-3,5.4-6.6c0.1-5.1,0.1-10.1,0-15.2
		c-0.1-3.2-1.8-5.6-5-6.5c-2-0.6-4.2-1-6.3-1c-5.1-0.2-10.2-0.1-15.3-0.1c-0.2,0-0.3,0-0.5,0.1C278.3,397.9,278.3,407.9,278.3,418z
		 M339.1,387.8c-7.7,0-15.3,0-23,0c0,10.1,0,20.1,0,30.2c7.9,0,15.7,0,23.5,0c0-1.7,0-3.4,0-5.2c-5.4,0-10.8,0-16.2,0
		c0-2.6,0-5.2,0-7.8c4.8,0,9.5,0,14.1,0c0-1.8,0-3.4,0-5.2c-4.7,0-9.4,0-14.1,0c0-2.3,0-4.6,0-7c5.3,0,10.5,0,15.7,0
		C339.1,391.1,339.1,389.5,339.1,387.8z M248.5,387.7c-3.6-0.1-7.2-0.4-10.7-0.4c-2.8,0-5.6,0.3-8.2,1.4c-2.5,1-4,2.8-4.2,5.5
		c-0.1,1.4-0.1,2.9,0,4.3c0.3,3.4,2.2,5.5,5.5,6.1c2.5,0.5,5.1,0.5,7.7,0.6c3.5,0.1,4.3,0.8,4.2,4.3c0,2.2-0.7,3.2-2.9,3.5
		c-2.1,0.3-4.2,0.3-6.4,0.1c-2.5-0.2-5-0.6-7.6-0.9c0,1.9,0,3.7,0,5.5c4.8,0.6,9.5,1.1,14.3,0.7c2.1-0.2,4.1-0.6,5.9-1.6
		c2-1,3.3-2.6,3.6-4.7c0.3-1.8,0.3-3.6,0.2-5.4c-0.1-3.4-1.8-5.7-5.1-6.3c-2.3-0.5-4.8-0.4-7.2-0.6c-1.1-0.1-2.2-0.1-3.2-0.3
		c-1.3-0.3-1.9-0.9-1.9-2c0-1.6-0.6-3.5,1.6-4.3c0.5-0.2,1.1-0.4,1.6-0.4c2.5,0,5.1,0,7.6,0.1c1.7,0.1,3.4,0.3,5.1,0.5
		C248.5,391.5,248.5,389.7,248.5,387.7z M175.7,418c0-10.1,0-20.1,0-30.2c-2.4,0-4.8,0-7.1,0c0,10.1,0,20.1,0,30.2
		C170.9,418,173.3,418,175.7,418z M259.8,387.8c0,10.1,0,20.1,0,30.2c2.4,0,4.8,0,7.1,0c0-10.1,0-20.2,0-30.2
		C264.5,387.8,262.2,387.8,259.8,387.8z M395.3,439.5c0.1,0,0.2,0,0.3,0c1.3,2.4,2.6,4.7,3.9,7c0.5,0.9,1.5,0.9,2,0
		c1-1.9,2-3.7,3.1-5.6c0.3-0.5,0.6-1,0.9-1.6c0.1,0,0.1,0,0.2,0.1c0,3.4,0,6.8,0,10.3c0.8,0,1.6,0,2.4,0c0-5,0-10,0-15
		c-0.4,0-0.7,0-1,0c-1.1-0.2-1.7,0.3-2.2,1.3c-1.2,2.4-2.5,4.7-3.8,7c-0.1,0.3-0.3,0.5-0.5,0.8c-1.6-2.9-3.1-5.6-4.5-8.4
		c-0.3-0.5-0.6-0.8-1.2-0.7c-0.5,0.1-1.1,0-1.7,0c0,5.1,0,10,0,15.1c0.8,0,1.5,0,2.3,0C395.3,446.3,395.3,442.9,395.3,439.5z
		 M516.7,434.6c0,5.1,0,10.1,0,15c0.8,0,1.5,0,2.3,0c0-1.7,0-3.4,0-5.2c0.9,0,1.8,0,2.6,0c0.6,0,1,0.2,1.3,0.7
		c0.8,1.4,1.6,2.7,2.5,4c0.1,0.2,0.4,0.5,0.7,0.5c0.7,0.1,1.5,0,2.4,0c-1.2-2-2.4-3.8-3.5-5.7c0.2-0.1,0.2-0.2,0.3-0.2
		c2-1.1,2.9-3.2,2.4-5.4c-0.5-2.1-2.3-3.7-4.6-3.8C521.1,434.6,519,434.6,516.7,434.6z M439.7,444.5c1,0,1.8,0,2.6,0
		c0.6,0,0.9,0.1,1.3,0.7c0.8,1.4,1.6,2.7,2.5,4c0.2,0.3,0.5,0.5,0.7,0.6c0.7,0.1,1.4,0,2.3,0c-1.2-2-2.4-3.8-3.5-5.7
		c2.2-1.2,3.1-3,2.8-5.1c-0.3-2-1.7-3.9-3.5-4.1c-2.5-0.2-5.1-0.1-7.6-0.1c0,5,0,9.9,0,14.9c0.8,0,1.5,0,2.3,0
		C439.7,448,439.7,446.3,439.7,444.5z M317.7,444.1c0.1-0.1,0.2-0.2,0.3-0.2c2-1.1,3-3.2,2.4-5.5c-0.5-2.2-2.4-3.7-4.7-3.7
		c-0.9,0-1.9,0-2.8,0c-1.2,0-2.3,0-3.5,0c0,5.1,0,10.1,0,15c0.8,0,1.5,0,2.3,0c0-1.7,0-3.4,0-5.2c0.9,0,1.8,0,2.7,0
		c0.6,0,0.9,0.2,1.2,0.7c0.8,1.4,1.6,2.7,2.5,4c0.2,0.2,0.5,0.5,0.8,0.5c0.7,0.1,1.4,0,2.3,0C320,447.8,318.8,445.9,317.7,444.1z
		 M300.4,442.3c0-4.2-3.1-7.7-7-7.7c-4-0.1-7.3,3.3-7.4,7.5c-0.1,4.2,3.1,7.7,7.2,7.7C297.1,449.9,300.3,446.5,300.4,442.3z
		 M475.7,447.9c2.8,1.9,5.7,2.5,8.8,1.6c1.8-0.5,2.8-1.9,2.9-3.8c0.1-1.8-0.7-3-2.6-3.8c-0.6-0.3-1.3-0.4-1.9-0.6
		c-1.1-0.3-2.2-0.5-3.2-1c-0.5-0.2-1-1-1-1.5c0.1-0.6,0.6-1.3,1.1-1.7c0.3-0.3,0.9-0.3,1.4-0.3c1.7-0.1,3.1,0.5,4.5,1.5
		c0.4-0.7,0.7-1.3,1.1-2.1c-1.1-0.5-2.1-1-3.2-1.3c-1.8-0.5-3.7-0.4-5.4,0.6c-1.5,0.9-2.2,2.3-2.1,4.1c0.1,1.7,1.2,2.6,2.7,3.1
		c0.9,0.3,1.8,0.5,2.7,0.8c0.8,0.3,1.7,0.5,2.3,0.9c0.5,0.3,0.9,1.1,0.8,1.6c-0.1,0.5-0.6,1.2-1.1,1.4c-0.6,0.3-1.5,0.4-2.1,0.3
		c-1.6-0.4-3.2-1-4.9-1.5C476.4,446.5,476,447.1,475.7,447.9z M200.3,436.3c-2.2-1.8-5.8-2.3-8.1-1.1c-1.7,0.9-2.4,2.3-2.4,4.1
		c0.1,1.8,1.1,2.8,2.7,3.3c1,0.3,2,0.6,3,0.9c0.7,0.2,1.5,0.5,2.1,0.9c1.1,0.7,1,2.3-0.2,2.9c-0.4,0.2-0.8,0.3-1.2,0.3
		c-2.2,0.2-4.1-0.5-5.9-1.8c-0.4,0.7-0.7,1.3-1.1,2c2.9,1.9,5.9,2.6,9.2,1.5c1.7-0.6,2.5-1.9,2.6-3.7c0-1.7-0.8-2.9-2.3-3.6
		c-0.7-0.3-1.4-0.5-2.1-0.7c-1.1-0.3-2.1-0.6-3.2-1c-0.7-0.3-1.2-0.9-1-1.6c0.2-0.6,0.7-1.2,1.2-1.7c0.3-0.3,0.9-0.2,1.3-0.3
		c1.7-0.1,3.1,0.5,4.5,1.5C199.7,437.5,200,436.9,200.3,436.3z M219.9,436.2c-2.6-1.7-5.3-2.3-8.1-1.1c-1.7,0.7-2.6,2.3-2.5,4.1
		c0.1,1.8,1.2,2.8,2.8,3.4c0.6,0.2,1.1,0.4,1.7,0.5c1,0.3,1.9,0.6,2.9,0.9c0.9,0.3,1.3,1,1.2,2c-0.2,1-0.9,1.4-1.7,1.5
		c-1,0.1-2,0.1-2.9-0.1c-1.2-0.3-2.4-0.9-3.6-1.4c-0.3,0.6-0.6,1.2-1,1.9c2.8,1.9,5.7,2.5,8.9,1.6c1.8-0.5,2.8-1.9,2.9-3.7
		c0.1-1.8-0.7-3.1-2.5-3.8c-0.6-0.3-1.3-0.4-2-0.7c-1.1-0.3-2.2-0.6-3.2-1.1c-0.5-0.2-1-1-0.9-1.5c0-0.6,0.6-1.2,1-1.6
		c0.3-0.3,0.9-0.3,1.4-0.3c1.7-0.1,3.2,0.4,4.5,1.5C219.2,437.6,219.5,436.9,219.9,436.2z M247,447.8c2.3,2.1,6.8,2.8,9.4,1.5
		c1.5-0.7,2.3-2,2.3-3.7c0-1.6-0.7-2.8-2.2-3.5c-0.7-0.3-1.5-0.5-2.3-0.8c-1-0.3-2.1-0.6-3.1-1c-1.2-0.5-1.5-2-0.5-2.8
		c0.5-0.4,1.2-0.7,1.8-0.7c1.7-0.2,3.3,0.4,4.7,1.4c0.4-0.6,0.7-1.3,1-1.8c-2.1-1.9-5.9-2.3-8.2-1.1c-1.6,0.9-2.4,2.3-2.3,4.2
		c0.1,1.7,1.2,2.7,2.7,3.2c0.4,0.1,0.9,0.3,1.3,0.4c1.1,0.3,2.2,0.6,3.2,1c0.6,0.3,1.1,0.9,1.3,1.4c0.3,1.1-0.5,1.9-1.8,2.1
		c-2.3,0.3-4.3-0.4-6.3-1.8C247.6,446.5,247.3,447.1,247,447.8z M266.4,447.9c2.9,1.9,5.9,2.6,9.1,1.5c1.7-0.6,2.6-1.9,2.6-3.8
		c0-1.7-0.7-2.9-2.5-3.6c-0.6-0.3-1.3-0.5-2-0.7c-1.1-0.3-2.2-0.6-3.2-1c-1.2-0.5-1.5-1.9-0.6-2.8c0.5-0.4,1.2-0.7,1.9-0.8
		c1.7-0.2,3.3,0.4,4.7,1.4c0.4-0.7,0.7-1.3,1.1-2c-1-0.4-1.8-0.9-2.7-1.2c-1.9-0.6-3.7-0.6-5.5,0.3c-1.7,0.8-2.4,2.3-2.4,4.1
		c0.1,1.8,1.2,2.8,2.8,3.3c1,0.3,1.9,0.6,2.9,0.9c0.8,0.3,1.5,0.5,2.2,0.9c1.1,0.7,1,2.3-0.2,2.9c-0.4,0.2-0.8,0.3-1.2,0.3
		c-2.2,0.2-4.1-0.5-5.9-1.8C267.2,446.5,266.8,447.1,266.4,447.9z M460.4,436.8c2.6,0,5.1,0,7.6,0c0-0.7,0-1.4,0-2.1
		c-3.4,0-6.7,0-10,0c0,5,0,10,0,15c3.5,0,6.8,0,10.2,0c0-0.7,0-1.3,0-2c-2.6,0-5.2,0-7.8,0c0-1.6,0-3.1,0-4.6c2.2,0,4.4,0,6.6,0
		c0-0.7,0-1.3,0-2c-2.2,0-4.4,0-6.6,0C460.4,439.6,460.4,438.3,460.4,436.8z M373.6,434.7c0,5.1,0,10,0,15c3.4,0,6.8,0,10.2,0
		c0-0.7,0-1.4,0-2.1c-2.6,0-5.2,0-7.8,0c0-1.5,0-3,0-4.6c2.2,0,4.4,0,6.6,0c0-0.7,0-1.3,0-2c-2.2,0-4.4,0-6.6,0c0-1.5,0-2.8,0-4.3
		c2.6,0,5.1,0,7.6,0c0-0.7,0-1.4,0-2C380.3,434.7,377,434.7,373.6,434.7z M231.6,436.8c2.6,0,5.1,0,7.6,0c0-0.8,0-1.4,0-2
		c-3.4,0-6.7,0-10,0c0,5,0,10,0,15c3.4,0,6.8,0,10.2,0c0-0.7,0-1.3,0-2.1c-2.6,0-5.2,0-7.8,0c0-1.6,0-3,0-4.6c2.2,0,4.4,0,6.6,0
		c0-0.7,0-1.3,0-2c-2.2,0-4.4,0-6.6,0C231.6,439.6,231.6,438.3,231.6,436.8z M420.2,444.5c1.4,0,2.6,0,3.8,0c2.7,0,4.6-1.8,4.8-4.5
		c0.2-2.7-1.6-5-4.2-5.2c-2.2-0.2-4.4,0-6.7,0c0,5,0,10,0,15c0.8,0,1.5,0,2.3,0C420.2,447.9,420.2,446.3,420.2,444.5z M182.5,449.7
		c-1.9-4.9-3.8-9.7-5.7-14.6c-0.3-0.9-1.1-0.4-1.6-0.4c-0.3,0-0.7,0.3-0.9,0.6c-1.1,2.7-2.2,5.4-3.2,8.1c-0.8,2.1-1.7,4.2-2.5,6.3
		c0.9,0,1.7,0,2.5,0c0.1-0.3,0.2-0.5,0.3-0.8c0.4-1.1,0.6-2.5,1.4-3.1c0.8-0.5,2.2-0.2,3.4-0.2c2.3,0,2.3,0,3.1,2.1
		C180,449.8,180,449.8,182.5,449.7z M351.8,449.7c0.9,0,1.6,0,2.5,0c-0.1-0.4-0.3-0.7-0.4-1c-1.6-4.1-3.2-8.2-4.8-12.3
		c-0.7-1.9-0.7-1.9-2.8-1.7c-2,5-3.9,10-5.9,15c1,0,1.7,0,2.5,0c0.4-1.1,0.9-2.2,1.3-3.4c0.2-0.5,0.5-0.7,1-0.7c1.5,0,2.9,0,4.4,0
		c0.3,0,0.8,0.3,0.9,0.6C351,447.4,351.4,448.5,351.8,449.7z M508.3,449.6c-0.1-0.3-0.2-0.6-0.4-1c-1.6-4.1-3.2-8.2-4.9-12.3
		c-0.7-1.8-0.7-1.8-2.8-1.6c-2,5-4,10-6,15c0.6,0,1.1-0.1,1.5,0c0.8,0.1,1.2-0.2,1.4-1c0.3-1,0.6-2.4,1.3-3c0.8-0.5,2.2-0.2,3.3-0.2
		c2.4,0,2.4,0,3.2,2.2c0.8,2,0.8,2,2.9,1.9C508.1,449.7,508.2,449.7,508.3,449.6z M561.6,449.7c-0.1-0.4-0.3-0.7-0.4-1
		c-1.6-4.1-3.2-8.2-4.9-12.3c-0.7-1.8-0.7-1.8-2.8-1.6c-2,5-4,10-5.9,15c2.5,0.2,2.5,0.2,3.3-2c0.2-0.5,0.4-0.9,0.5-1.4
		c0.1-0.5,0.4-0.7,1-0.7c1.4,0,2.9,0.1,4.3,0c0.7,0,0.9,0.2,1.1,0.8c0.4,1.1,0.8,2.2,1.3,3.2C560,449.7,560.8,449.7,561.6,449.7z
		 M570,449.7c3.5,0,6.9,0,10.4,0c0-0.7,0-1.4,0-2.1c-2.7,0-5.3,0-8.1,0c0-4.3,0-8.6,0-12.9c-0.8,0-1.5,0-2.3,0
		C570,439.7,570,444.6,570,449.7z M537.1,434.7c0,5,0,10,0,15c0.8,0,1.6,0,2.3,0c0-5,0-10,0-15C538.6,434.7,537.9,434.7,537.1,434.7
		z M329.8,434.7c0,5.1,0,10,0,15c0.8,0,1.6,0,2.3,0c0-5,0-10,0-15C331.3,434.7,330.5,434.7,329.8,434.7z"/>
	<path class="st1" d="M31.9,383.8c0.1,0,0.1-0.1,0.2,0c0,0.2,0,0.5,0,0.7c0,13.3,0,26.6,0,39.8c0,0.3,0,0.6-0.1,0.8c0,0-0.1,0-0.1,0
		l-0.1-0.1C31.9,411.4,31.9,397.6,31.9,383.8z"/>
	<path class="st2" d="M31.9,453.1c0.1,0,0.1,0,0.2,0c0,5.4,0,10.8,0,16.1c-0.1,0-0.2,0-0.2,0C31.9,463.9,31.9,458.5,31.9,453.1z"/>
	<path class="st3" d="M86.7,352c0.3,0.1,0.7,0.2,0.9,0.3c17.7,10.3,35.5,20.7,53.2,31c0.5,0.3,0.8,0.6,0.8,1.3c0,13.4,0,26.8,0,40.2
		c0,0.2,0,0.3,0,0.6c-1.4-0.8-2.7-1.6-4.1-2.3c-16.7-9.7-33.4-19.5-50-29.2c-0.3-0.2-0.6-0.3-0.8-0.4c0-0.1,0-0.3,0-0.4
		c0.1-0.4,0.2-0.7,0.2-1.1c0-12.8,0-25.7,0-38.5c0-0.4-0.1-0.7-0.2-1.1C86.7,352.2,86.7,352.1,86.7,352z"/>
	<path class="st4" d="M86.7,393.1c0,0.1,0,0.3,0,0.4c-4.6,2.7-9.3,5.5-13.9,8.2c-13.2,7.7-26.5,15.4-39.7,23.1
		c-0.3,0.2-0.7,0.3-1,0.4c0-0.3,0.1-0.6,0.1-0.8c0-13.3,0-26.6,0-39.8c0-0.2,0-0.5,0-0.7c3.5-2.1,7-4.2,10.5-6.2
		c14.5-8.4,28.9-16.9,43.4-25.3c0.2-0.1,0.4-0.2,0.6-0.3c0,0.1,0,0.3,0,0.4C86.7,365.9,86.7,379.5,86.7,393.1z"/>
	<path class="st5" d="M100.5,429.7c5.5,3.1,10.9,6.1,16.3,9.2c8,4.5,16.1,9.1,24.1,13.6c0.7,0.4,1,0.8,1,1.7c-0.1,5,0,9.9,0,15
		c-13.8,0-27.6,0-41.4,0C100.5,456.1,100.5,443,100.5,429.7z"/>
	<path class="st3" d="M32.2,469.2c0-5.4,0-10.8,0-16.1c7.5-4.2,15-8.5,22.5-12.7c6.1-3.4,12.1-6.8,18.2-10.2
		c0.2-0.1,0.4-0.2,0.6-0.3c0,13.2,0,26.3,0,39.4c-0.1,0-0.3,0.1-0.4,0.1C59.4,469.3,45.8,469.2,32.2,469.2z"/>
	<path class="st6" d="M215.6,418c-2.3,0-4.6,0-6.8,0c-0.4,0-0.8-0.4-1-0.7c-4.4-6.3-8.9-12.7-13.3-19c-0.2-0.3-0.4-0.6-0.8-1.1
		c0,7.1,0,13.9,0,20.7c-2.2,0-4.3,0-6.5,0c0-10,0-20.1,0-30.2c2.3,0,4.6,0,6.9,0c0.3,0,0.7,0.5,1,0.8c4.4,6.1,8.7,12.3,13.1,18.5
		c0.2,0.3,0.4,0.6,0.9,1.2c0-7,0-13.6,0-20.4c2.2,0,4.4,0,6.5,0C215.6,397.9,215.6,407.9,215.6,418z"/>
	<path class="st7" d="M278.3,418c0-10.1,0-20.1,0-30.2c0.2,0,0.3-0.1,0.5-0.1c5.1,0,10.2-0.1,15.3,0.1c2.1,0.1,4.2,0.4,6.3,1
		c3.2,0.9,4.9,3.3,5,6.5c0.1,5.1,0.1,10.1,0,15.2c-0.1,3.6-1.9,5.8-5.4,6.6c-2.2,0.5-4.6,0.8-6.8,0.8c-4.8,0.1-9.5,0.1-14.3,0.1
		C278.7,418,278.5,418,278.3,418z M285.5,412.9c3.3-0.1,6.5-0.2,9.7-0.4c2-0.1,2.9-1.1,2.9-3.1c0.1-4.2,0-8.5,0-12.7
		c0-1.8-0.8-2.8-2.5-3.3c-3.3-0.9-6.7-0.5-10.1-0.6C285.5,399.6,285.5,406.2,285.5,412.9z"/>
	<path class="st7" d="M339.1,387.8c0,1.7,0,3.3,0,5.1c-5.2,0-10.5,0-15.7,0c0,2.4,0,4.6,0,7c4.7,0,9.4,0,14.1,0c0,1.7,0,3.4,0,5.2
		c-4.7,0-9.4,0-14.1,0c0,2.6,0,5.2,0,7.8c5.4,0,10.7,0,16.2,0c0,1.8,0,3.4,0,5.2c-7.8,0-15.6,0-23.5,0c0-10,0-20.1,0-30.2
		C323.7,387.8,331.4,387.8,339.1,387.8z"/>
	<path class="st8" d="M248.5,387.7c0,2,0,3.7,0,5.6c-1.7-0.2-3.4-0.4-5.1-0.5c-2.5-0.1-5.1-0.1-7.6-0.1c-0.5,0-1.1,0.2-1.6,0.4
		c-2.2,0.8-1.5,2.7-1.6,4.3c0,1.1,0.6,1.8,1.9,2c1.1,0.2,2.1,0.2,3.2,0.3c2.4,0.2,4.8,0.1,7.2,0.6c3.3,0.7,5.1,3,5.1,6.3
		c0,1.8,0,3.6-0.2,5.4c-0.3,2.2-1.6,3.7-3.6,4.7c-1.9,1-3.9,1.4-5.9,1.6c-4.8,0.4-9.6-0.1-14.3-0.7c0-1.9,0-3.7,0-5.5
		c2.6,0.3,5.1,0.8,7.6,0.9c2.1,0.1,4.3,0.1,6.4-0.1c2.2-0.3,2.9-1.3,2.9-3.5c0-3.5-0.8-4.2-4.2-4.3c-2.6-0.1-5.2-0.1-7.7-0.6
		c-3.3-0.6-5.2-2.8-5.5-6.1c-0.1-1.4-0.1-2.9,0-4.3c0.2-2.7,1.8-4.5,4.2-5.5c2.6-1.1,5.4-1.4,8.2-1.4
		C241.3,387.3,244.9,387.6,248.5,387.7z"/>
	<path class="st3" d="M175.7,418c-2.4,0-4.8,0-7.1,0c0-10.1,0-20.1,0-30.2c2.4,0,4.7,0,7.1,0C175.7,397.9,175.7,407.9,175.7,418z"/>
	<path class="st9" d="M259.8,387.8c2.4,0,4.7,0,7.1,0c0,10,0,20.1,0,30.2c-2.3,0-4.7,0-7.1,0C259.8,407.9,259.8,397.9,259.8,387.8z"
		/>
	<path class="st10" d="M395.3,439.5c0,3.4,0,6.8,0,10.2c-0.8,0-1.6,0-2.3,0c0-5,0-10,0-15.1c0.6,0,1.1,0,1.7,0
		c0.6-0.1,0.9,0.2,1.2,0.7c1.5,2.8,3,5.5,4.5,8.4c0.2-0.3,0.4-0.6,0.5-0.8c1.3-2.3,2.6-4.6,3.8-7c0.5-1,1.1-1.5,2.2-1.3
		c0.3,0.1,0.6,0,1,0c0,5,0,10,0,15c-0.8,0-1.5,0-2.4,0c0-3.5,0-6.9,0-10.3c-0.1,0-0.1,0-0.2-0.1c-0.3,0.5-0.6,1-0.9,1.6
		c-1,1.9-2,3.7-3.1,5.6c-0.5,0.9-1.5,0.9-2,0c-1.3-2.3-2.6-4.7-3.9-7C395.5,439.4,395.4,439.5,395.3,439.5z"/>
	<path class="st11" d="M516.7,434.6c2.2,0,4.4,0,6.5,0c2.2,0.1,4.1,1.6,4.6,3.8c0.5,2.2-0.4,4.3-2.4,5.4c-0.1,0-0.2,0.1-0.3,0.2
		c1.1,1.8,2.3,3.7,3.5,5.7c-0.9,0-1.6,0-2.4,0c-0.2,0-0.5-0.3-0.7-0.5c-0.9-1.3-1.7-2.6-2.5-4c-0.3-0.6-0.7-0.8-1.3-0.7
		c-0.8,0.1-1.7,0-2.6,0c0,1.8,0,3.5,0,5.2c-0.8,0-1.5,0-2.3,0C516.7,444.7,516.7,439.7,516.7,434.6z M519.1,442.4c1.3,0,2.6,0,3.8,0
		c1.4,0,2.4-1,2.5-2.5c0.1-1.5-0.8-3-2.2-3.1c-1.3-0.1-2.7,0-4.1,0C519.1,438.6,519.1,440.4,519.1,442.4z"/>
	<path class="st11" d="M439.7,444.5c0,1.8,0,3.5,0,5.2c-0.8,0-1.5,0-2.3,0c0-4.9,0-9.9,0-14.9c2.5,0,5.1-0.2,7.6,0.1
		c1.8,0.2,3.3,2.1,3.5,4.1c0.3,2.2-0.6,3.9-2.8,5.1c1.1,1.8,2.3,3.7,3.5,5.7c-0.9,0-1.6,0.1-2.3,0c-0.3,0-0.6-0.3-0.7-0.6
		c-0.9-1.3-1.7-2.6-2.5-4c-0.3-0.5-0.7-0.7-1.3-0.7C441.6,444.5,440.7,444.5,439.7,444.5z M439.8,442.4c1.3,0,2.5,0,3.7,0
		c1.5,0,2.4-0.9,2.6-2.4c0.2-1.4-0.6-2.9-1.9-3.1c-1.5-0.2-3,0-4.5,0C439.8,438.7,439.8,440.5,439.8,442.4z"/>
	<path class="st11" d="M317.7,444.1c1.1,1.8,2.3,3.7,3.5,5.6c-0.9,0-1.6,0.1-2.3,0c-0.3,0-0.6-0.3-0.8-0.5c-0.9-1.3-1.7-2.6-2.5-4
		c-0.3-0.5-0.6-0.7-1.2-0.7c-0.9,0.1-1.7,0-2.7,0c0,1.8,0,3.4,0,5.2c-0.8,0-1.5,0-2.3,0c0-5,0-9.9,0-15c1.2,0,2.3,0,3.5,0
		c0.9,0,1.9,0,2.8,0c2.3,0,4.2,1.5,4.7,3.7c0.5,2.2-0.4,4.3-2.4,5.5C317.9,443.9,317.9,444,317.7,444.1z M311.8,442.3
		c0.2,0,0.3,0,0.4,0c1.2,0,2.3,0,3.5,0c1.5,0,2.4-1,2.5-2.6c0.1-1.5-0.9-2.9-2.3-3c-1.3-0.1-2.6,0-4,0
		C311.8,438.6,311.8,440.4,311.8,442.3z"/>
	<path class="st12" d="M300.4,442.3c0,4.2-3.3,7.6-7.3,7.5c-4,0-7.2-3.5-7.2-7.7c0.1-4.2,3.3-7.6,7.4-7.5
		C297.3,434.6,300.4,438.1,300.4,442.3z M293.2,447.7c1.4,0,2.5-0.6,3.4-1.6c1.8-2.1,1.8-5.4,0.1-7.6c-1.8-2.3-5.1-2.4-6.9-0.1
		c-0.7,0.9-1.2,2-1.4,3.1C287.9,444.7,290.2,447.7,293.2,447.7z"/>
	<path class="st10" d="M475.7,447.9c0.4-0.7,0.7-1.3,0.9-1.7c1.7,0.5,3.3,1.1,4.9,1.5c0.7,0.2,1.5,0,2.1-0.3
		c0.5-0.2,1.1-0.9,1.1-1.4c0.1-0.5-0.4-1.3-0.8-1.6c-0.7-0.5-1.5-0.7-2.3-0.9c-0.9-0.3-1.8-0.5-2.7-0.8c-1.5-0.5-2.6-1.4-2.7-3.1
		c-0.1-1.7,0.5-3.2,2.1-4.1c1.7-1,3.5-1.1,5.4-0.6c1.1,0.3,2,0.8,3.2,1.3c-0.4,0.8-0.7,1.4-1.1,2.1c-1.3-1-2.8-1.6-4.5-1.5
		c-0.5,0-1.1,0-1.4,0.3c-0.5,0.5-1,1.1-1.1,1.7c0,0.5,0.5,1.3,1,1.5c1,0.5,2.1,0.7,3.2,1c0.6,0.2,1.3,0.4,1.9,0.6
		c1.8,0.8,2.6,2,2.6,3.8c-0.1,1.9-1.1,3.3-2.9,3.8C481.3,450.4,478.4,449.7,475.7,447.9z"/>
	<path class="st10" d="M200.3,436.3c-0.3,0.6-0.7,1.2-1,1.8c-1.4-1-2.8-1.6-4.5-1.5c-0.4,0-1,0-1.3,0.3c-0.5,0.5-1,1.1-1.2,1.7
		c-0.2,0.7,0.3,1.4,1,1.6c1,0.4,2.1,0.7,3.2,1c0.7,0.2,1.4,0.4,2.1,0.7c1.6,0.7,2.4,1.9,2.3,3.6c0,1.8-0.9,3.1-2.6,3.7
		c-3.3,1.2-6.3,0.4-9.2-1.5c0.4-0.7,0.7-1.3,1.1-2c1.8,1.3,3.7,2,5.9,1.8c0.4,0,0.8-0.1,1.2-0.3c1.2-0.6,1.4-2.1,0.2-2.9
		c-0.6-0.4-1.4-0.6-2.1-0.9c-1-0.3-2-0.6-3-0.9c-1.6-0.5-2.7-1.5-2.7-3.3c-0.1-1.8,0.7-3.2,2.4-4.1
		C194.6,434,198.1,434.5,200.3,436.3z"/>
	<path class="st10" d="M219.9,436.2c-0.4,0.7-0.7,1.3-1.1,1.9c-1.4-1-2.8-1.6-4.5-1.5c-0.5,0-1.1,0.1-1.4,0.3c-0.5,0.4-1,1.1-1,1.6
		c0,0.5,0.5,1.3,0.9,1.5c1,0.5,2.1,0.7,3.2,1.1c0.7,0.2,1.3,0.4,2,0.7c1.8,0.8,2.6,2,2.5,3.8c-0.1,1.8-1.1,3.2-2.9,3.7
		c-3.2,0.9-6.1,0.3-8.9-1.6c0.4-0.7,0.7-1.3,1-1.9c1.2,0.5,2.4,1.1,3.6,1.4c0.9,0.2,1.9,0.2,2.9,0.1c0.8-0.1,1.5-0.5,1.7-1.5
		c0.2-1-0.3-1.6-1.2-2c-0.9-0.4-1.9-0.6-2.9-0.9c-0.6-0.2-1.1-0.4-1.7-0.5c-1.6-0.5-2.7-1.5-2.8-3.4c-0.1-1.8,0.8-3.4,2.5-4.1
		C214.7,434,217.3,434.6,219.9,436.2z"/>
	<path class="st10" d="M247,447.8c0.3-0.6,0.7-1.2,1-1.9c1.9,1.4,3.9,2.1,6.3,1.8c1.3-0.2,2.1-1,1.8-2.1c-0.2-0.6-0.8-1.2-1.3-1.4
		c-1-0.5-2.1-0.7-3.2-1c-0.4-0.1-0.9-0.3-1.3-0.4c-1.6-0.5-2.6-1.5-2.7-3.2c-0.1-1.8,0.7-3.3,2.3-4.2c2.3-1.3,6.1-0.8,8.2,1.1
		c-0.3,0.6-0.7,1.2-1,1.8c-1.4-1.1-3-1.6-4.7-1.4c-0.6,0.1-1.3,0.3-1.8,0.7c-1,0.8-0.7,2.3,0.5,2.8c1,0.4,2.1,0.7,3.1,1
		c0.8,0.2,1.5,0.5,2.3,0.8c1.5,0.7,2.2,1.8,2.2,3.5c0,1.7-0.7,3-2.3,3.7C253.8,450.5,249.3,449.8,247,447.8z"/>
	<path class="st10" d="M266.4,447.9c0.4-0.8,0.7-1.4,1.1-2c1.8,1.3,3.7,2,5.9,1.8c0.4,0,0.8-0.1,1.2-0.3c1.2-0.6,1.4-2.1,0.2-2.9
		c-0.7-0.4-1.4-0.7-2.2-0.9c-1-0.3-1.9-0.6-2.9-0.9c-1.6-0.5-2.7-1.5-2.8-3.3c-0.1-1.8,0.7-3.3,2.4-4.1c1.8-0.9,3.7-0.9,5.5-0.3
		c0.9,0.3,1.8,0.8,2.7,1.2c-0.4,0.7-0.7,1.4-1.1,2c-1.4-1.1-3-1.7-4.7-1.4c-0.7,0.1-1.4,0.4-1.9,0.8c-0.9,0.8-0.6,2.2,0.6,2.8
		c1,0.4,2.1,0.7,3.2,1c0.7,0.2,1.3,0.4,2,0.7c1.7,0.7,2.5,1.9,2.5,3.6c0,1.8-0.9,3.2-2.6,3.8C272.3,450.5,269.3,449.8,266.4,447.9z"
		/>
	<path class="st8" d="M460.4,436.8c0,1.5,0,2.9,0,4.3c2.2,0,4.4,0,6.6,0c0,0.7,0,1.3,0,2c-2.2,0-4.3,0-6.6,0c0,1.5,0,3,0,4.6
		c2.6,0,5.2,0,7.8,0c0,0.7,0,1.3,0,2c-3.4,0-6.8,0-10.2,0c0-5,0-9.9,0-15c3.4,0,6.7,0,10,0c0,0.7,0,1.3,0,2.1
		C465.5,436.8,463,436.8,460.4,436.8z"/>
	<path class="st8" d="M373.6,434.7c3.4,0,6.7,0,10,0c0,0.7,0,1.3,0,2c-2.5,0-5,0-7.6,0c0,1.5,0,2.9,0,4.3c2.2,0,4.4,0,6.6,0
		c0,0.7,0,1.3,0,2c-2.2,0-4.3,0-6.6,0c0,1.5,0,3,0,4.6c2.6,0,5.1,0,7.8,0c0,0.7,0,1.3,0,2.1c-3.4,0-6.8,0-10.2,0
		C373.6,444.7,373.6,439.8,373.6,434.7z"/>
	<path class="st8" d="M231.6,436.8c0,1.5,0,2.9,0,4.3c2.2,0,4.4,0,6.6,0c0,0.7,0,1.3,0,2c-2.2,0-4.4,0-6.6,0c0,1.6,0,3,0,4.6
		c2.6,0,5.2,0,7.8,0c0,0.7,0,1.4,0,2.1c-3.4,0-6.8,0-10.2,0c0-5,0-9.9,0-15c3.3,0,6.6,0,10,0c0,0.6,0,1.3,0,2
		C236.7,436.8,234.2,436.8,231.6,436.8z"/>
	<path class="st11" d="M420.2,444.5c0,1.8,0,3.4,0,5.2c-0.8,0-1.5,0-2.3,0c0-5,0-10,0-15c2.3,0,4.5-0.1,6.7,0
		c2.6,0.2,4.4,2.6,4.2,5.2c-0.2,2.7-2.1,4.5-4.8,4.5C422.8,444.5,421.6,444.5,420.2,444.5z M420.3,436.8c0,1.9,0,3.7,0,5.5
		c0.1,0,0.2,0.1,0.3,0.1c1.1,0,2.2,0,3.2,0c1.5,0,2.5-0.9,2.6-2.6c0.1-1.5-0.8-2.9-2.1-3C423,436.7,421.7,436.8,420.3,436.8z"/>
	<path class="st13" d="M182.5,449.7c-2.4,0.2-2.4,0.2-3.2-1.9c-0.8-2.1-0.8-2.1-3.1-2.1c-1.1,0-2.6-0.4-3.4,0.2
		c-0.8,0.5-1,2-1.4,3.1c-0.1,0.3-0.2,0.5-0.3,0.8c-0.8,0-1.6,0-2.5,0c0.9-2.2,1.7-4.3,2.5-6.3c1.1-2.7,2.1-5.4,3.2-8.1
		c0.1-0.3,0.6-0.6,0.9-0.6c0.6,0,1.3-0.4,1.6,0.4C178.6,439.9,180.5,444.8,182.5,449.7z M177.9,443.8c-0.8-2.1-1.5-4.1-2.4-6.4
		c-0.9,2.3-1.7,4.3-2.5,6.4C174.7,443.8,176.2,443.8,177.9,443.8z"/>
	<path class="st13" d="M351.8,449.7c-0.4-1.1-0.9-2.3-1.4-3.4c-0.1-0.3-0.6-0.6-0.9-0.6c-1.5-0.1-2.9,0-4.4,0c-0.5,0-0.8,0.1-1,0.7
		c-0.4,1.1-0.8,2.2-1.3,3.4c-0.8,0-1.6,0-2.5,0c2-5,4-10,5.9-15c2.1-0.1,2.1-0.1,2.8,1.7c1.6,4.1,3.2,8.2,4.8,12.3
		c0.1,0.3,0.2,0.6,0.4,1C353.5,449.7,352.7,449.7,351.8,449.7z M347.4,437.4c-0.9,2.3-1.7,4.3-2.4,6.4c1.7,0,3.2,0,4.8,0
		C349,441.7,348.2,439.7,347.4,437.4z"/>
	<path class="st13" d="M508.3,449.6c-0.1,0-0.2,0.1-0.3,0.1c-2.1,0.1-2.1,0.1-2.9-1.9c-0.8-2.2-0.8-2.2-3.2-2.2
		c-1.1,0-2.5-0.4-3.3,0.2c-0.8,0.5-1,1.9-1.3,3c-0.2,0.8-0.6,1.1-1.4,1c-0.4-0.1-0.9,0-1.5,0c2-5.1,4-10.1,6-15
		c2.1-0.1,2.1-0.1,2.8,1.6c1.6,4.1,3.2,8.2,4.9,12.3C508.1,449,508.2,449.3,508.3,449.6z M498.9,443.8c1.7,0,3.2,0,4.8,0
		c-0.8-2.1-1.5-4.1-2.4-6.4C500.5,439.7,499.7,441.7,498.9,443.8z"/>
	<path class="st13" d="M561.6,449.7c-0.9,0-1.6,0-2.5,0c-0.4-1.1-0.9-2.1-1.3-3.2c-0.2-0.6-0.5-0.8-1.1-0.8c-1.4,0.1-2.9,0-4.3,0
		c-0.5,0-0.8,0.2-1,0.7c-0.1,0.5-0.3,0.9-0.5,1.4c-0.8,2.1-0.8,2.1-3.3,2c2-5,4-10,5.9-15c2.1-0.1,2.1-0.1,2.8,1.6
		c1.6,4.1,3.2,8.2,4.9,12.3C561.4,449,561.5,449.3,561.6,449.7z M554.7,437.4c-0.9,2.3-1.7,4.3-2.5,6.3c1.7,0,3.2,0,4.8,0
		C556.3,441.7,555.5,439.7,554.7,437.4z"/>
	<path class="st7" d="M570,449.7c0-5,0-10,0-15c0.8,0,1.5,0,2.3,0c0,4.3,0,8.5,0,12.9c2.7,0,5.4,0,8.1,0c0,0.7,0,1.4,0,2.1
		C577,449.7,573.5,449.7,570,449.7z"/>
	<path class="st8" d="M537.1,434.7c0.8,0,1.5,0,2.3,0c0,5,0,9.9,0,15c-0.7,0-1.4,0-2.3,0C537.1,444.7,537.1,439.7,537.1,434.7z"/>
	<path class="st8" d="M329.8,434.7c0.8,0,1.5,0,2.3,0c0,5,0,9.9,0,15c-0.7,0-1.5,0-2.3,0C329.8,444.7,329.8,439.8,329.8,434.7z"/>
	<path class="st14" d="M86.7,393.1c0-13.6,0-27.1,0-40.7c0.1,0.4,0.2,0.7,0.2,1.1c0,12.8,0,25.7,0,38.5
		C86.9,392.3,86.8,392.7,86.7,393.1z"/>
	<path class="st15" d="M285.5,412.9c0-6.8,0-13.3,0-20c3.4,0.1,6.8-0.3,10.1,0.6c1.7,0.5,2.5,1.5,2.5,3.3c0,4.2,0,8.5,0,12.7
		c0,2-0.9,3-2.9,3.1C292.1,412.8,288.8,412.8,285.5,412.9z"/>
	<path class="st16" d="M519.1,442.4c0-1.9,0-3.7,0-5.6c1.4,0,2.8-0.1,4.1,0c1.4,0.1,2.4,1.5,2.2,3.1c-0.1,1.6-1.1,2.5-2.5,2.5
		C521.7,442.4,520.5,442.4,519.1,442.4z"/>
	<path class="st16" d="M439.8,442.4c0-1.9,0-3.7,0-5.5c1.5,0,3-0.1,4.5,0c1.3,0.2,2.1,1.7,1.9,3.1c-0.2,1.5-1.1,2.4-2.6,2.4
		C442.3,442.4,441.1,442.4,439.8,442.4z"/>
	<path class="st16" d="M311.8,442.3c0-1.9,0-3.7,0-5.6c1.4,0,2.7-0.1,4,0c1.4,0.1,2.4,1.4,2.3,3c-0.1,1.6-1,2.6-2.5,2.6
		c-1.2,0-2.3,0-3.5,0C312.1,442.4,312,442.3,311.8,442.3z"/>
	<path class="st17" d="M293.2,447.7c-3,0-5.3-3-4.7-6.2c0.2-1.1,0.7-2.2,1.4-3.1c1.8-2.3,5.1-2.1,6.9,0.1c1.7,2.1,1.6,5.5-0.1,7.6
		C295.7,447.1,294.6,447.7,293.2,447.7z"/>
	<path class="st16" d="M420.3,436.8c1.3,0,2.7-0.1,4,0c1.4,0.1,2.3,1.5,2.1,3c-0.1,1.6-1,2.5-2.6,2.6c-1.1,0-2.2,0-3.2,0
		c-0.1,0-0.1,0-0.3-0.1C420.3,440.5,420.3,438.7,420.3,436.8z"/>
	<path class="st18" d="M177.9,443.8c-1.6,0-3.2,0-4.8,0c0.8-2.1,1.6-4.1,2.5-6.4C176.4,439.7,177.1,441.7,177.9,443.8z"/>
	<path class="st18" d="M347.4,437.4c0.9,2.3,1.6,4.3,2.4,6.4c-1.6,0-3.1,0-4.8,0C345.7,441.7,346.5,439.7,347.4,437.4z"/>
	<path class="st18" d="M498.9,443.8c0.8-2.1,1.6-4.1,2.5-6.4c0.8,2.3,1.6,4.3,2.4,6.4C502.1,443.8,500.6,443.8,498.9,443.8z"/>
	<path class="st18" d="M554.7,437.4c0.8,2.3,1.6,4.2,2.4,6.3c-1.6,0-3.2,0-4.8,0C553,441.7,553.8,439.7,554.7,437.4z"/>
</g>
</svg>
