<?xml version="1.0" encoding="utf-8"?>
<!-- Generator: Adobe Illustrator 19.0.0, SVG Export Plug-In . SVG Version: 6.00 Build 0)  -->
<svg version="1.1" id="Layer_1" xmlns="http://www.w3.org/2000/svg" xmlns:xlink="http://www.w3.org/1999/xlink" x="0px" y="0px"
	 viewBox="0 0 612 138.5" style="enable-background:new 0 0 612 138.5;" xml:space="preserve">
<style type="text/css">
	.st0{fill:#FE6D00;}
	.st1{fill:#DA5E09;}
	.st2{fill:#DA5E0A;}
	.st3{fill:#FE6D01;}
	.st4{fill:#242021;}
	.st5{fill:#252122;}
	.st6{fill:#231F20;}
	.st7{fill:#282425;}
	.st8{fill:#262223;}
	.st9{fill:#272324;}
	.st10{fill:#292526;}
	.st11{fill:#E76E18;}
	.st12{fill:#F9F9F9;}
</style>
<g>
	<path class="st0" d="M66,10c0.3,0.1,0.7,0.2,0.9,0.3c17.7,10.3,35.5,20.7,53.2,31c0.5,0.3,0.8,0.6,0.8,1.3c0,13.4,0,26.8,0,40.2
		c0,0.2,0,0.3,0,0.6c-1.4-0.8-2.7-1.6-4.1-2.3c-16.7-9.7-33.4-19.5-50-29.2c-0.3-0.2-0.6-0.3-0.8-0.4c0-0.1,0-0.3,0-0.4
		c0.1-0.4,0.2-0.7,0.2-1.1c0-12.8,0-25.7,0-38.5c0-0.4-0.1-0.7-0.2-1.1C66,10.2,66,10.1,66,10z"/>
	<path class="st1" d="M66,51.1c0,0.1,0,0.3,0,0.4c-4.6,2.7-9.3,5.5-13.9,8.2c-13.2,7.7-26.5,15.4-39.7,23.1c-0.3,0.2-0.7,0.3-1,0.4
		c0-0.3,0.1-0.6,0.1-0.8c0-13.3,0-26.6,0-39.8c0-0.2,0-0.5,0-0.7c3.5-2.1,7-4.2,10.5-6.2c14.5-8.4,28.9-16.9,43.4-25.3
		c0.2-0.1,0.4-0.2,0.6-0.3c0,0.1,0,0.3,0,0.4C66,23.9,66,37.5,66,51.1z"/>
	<path class="st2" d="M79.8,87.7c5.5,3.1,10.9,6.1,16.3,9.2c8,4.5,16.1,9.1,24.1,13.6c0.7,0.4,1,0.8,1,1.7c-0.1,5,0,9.9,0,15
		c-13.8,0-27.6,0-41.4,0C79.8,114.1,79.8,101,79.8,87.7z"/>
	<path class="st0" d="M11.4,127.2c0-5.4,0-10.8,0-16.1c7.5-4.2,15-8.5,22.5-12.7c6.1-3.4,12.1-6.8,18.2-10.2
		c0.2-0.1,0.4-0.2,0.6-0.3c0,13.2,0,26.3,0,39.4c-0.1,0-0.3,0.1-0.4,0.1C38.7,127.3,25.1,127.2,11.4,127.2z"/>
	<path class="st3" d="M194.9,76c-2.3,0-4.6,0-6.8,0c-0.4,0-0.8-0.4-1-0.7c-4.4-6.3-8.9-12.7-13.3-19c-0.2-0.3-0.4-0.6-0.8-1.1
		c0,7.1,0,13.9,0,20.7c-2.2,0-4.3,0-6.5,0c0-10,0-20.1,0-30.2c2.3,0,4.6,0,6.9,0c0.3,0,0.7,0.5,1,0.8c4.4,6.1,8.7,12.3,13.1,18.5
		c0.2,0.3,0.4,0.6,0.9,1.2c0-7,0-13.6,0-20.4c2.2,0,4.4,0,6.5,0C194.9,55.9,194.9,65.9,194.9,76z"/>
	<path class="st4" d="M257.5,76c0-10.1,0-20.1,0-30.2c0.2,0,0.3-0.1,0.5-0.1c5.1,0,10.2-0.1,15.3,0.1c2.1,0.1,4.2,0.4,6.3,1
		c3.2,0.9,4.9,3.3,5,6.5c0.1,5.1,0.1,10.1,0,15.2c-0.1,3.6-1.9,5.8-5.4,6.6c-2.2,0.5-4.6,0.8-6.8,0.8c-4.8,0.1-9.5,0.1-14.3,0.1
		C258,76,257.8,76,257.5,76z M264.8,70.9c3.3-0.1,6.5-0.2,9.7-0.4c2-0.1,2.9-1.1,2.9-3.1c0.1-4.2,0-8.5,0-12.7
		c0-1.8-0.8-2.8-2.5-3.3c-3.3-0.9-6.7-0.5-10.1-0.6C264.8,57.6,264.8,64.2,264.8,70.9z"/>
	<path class="st4" d="M318.3,45.8c0,1.7,0,3.3,0,5.1c-5.2,0-10.5,0-15.7,0c0,2.4,0,4.6,0,7c4.7,0,9.4,0,14.1,0c0,1.7,0,3.4,0,5.2
		c-4.7,0-9.4,0-14.1,0c0,2.6,0,5.2,0,7.8c5.4,0,10.7,0,16.2,0c0,1.8,0,3.4,0,5.2c-7.8,0-15.6,0-23.5,0c0-10,0-20.1,0-30.2
		C303,45.8,310.6,45.8,318.3,45.8z"/>
	<path class="st5" d="M227.8,45.7c0,2,0,3.7,0,5.6c-1.7-0.2-3.4-0.4-5.1-0.5c-2.5-0.1-5.1-0.1-7.6-0.1c-0.5,0-1.1,0.2-1.6,0.4
		c-2.2,0.8-1.5,2.7-1.6,4.3c0,1.1,0.6,1.8,1.9,2c1.1,0.2,2.1,0.2,3.2,0.3c2.4,0.2,4.8,0.1,7.2,0.6c3.3,0.7,5.1,3,5.1,6.3
		c0,1.8,0,3.6-0.2,5.4c-0.3,2.2-1.6,3.7-3.6,4.7c-1.9,1-3.9,1.4-5.9,1.6c-4.8,0.4-9.6-0.1-14.3-0.7c0-1.9,0-3.7,0-5.5
		c2.6,0.3,5.1,0.8,7.6,0.9c2.1,0.1,4.3,0.1,6.4-0.1c2.2-0.3,2.9-1.3,2.9-3.5c0-3.5-0.8-4.2-4.2-4.3c-2.6-0.1-5.2-0.1-7.7-0.6
		c-3.3-0.6-5.2-2.8-5.5-6.1c-0.1-1.4-0.1-2.9,0-4.3c0.2-2.7,1.8-4.5,4.2-5.5c2.6-1.1,5.4-1.4,8.2-1.4
		C220.6,45.3,224.1,45.6,227.8,45.7z"/>
	<path class="st0" d="M154.9,76c-2.4,0-4.8,0-7.1,0c0-10.1,0-20.1,0-30.2c2.4,0,4.7,0,7.1,0C154.9,55.9,154.9,65.9,154.9,76z"/>
	<path class="st6" d="M239.1,45.8c2.4,0,4.7,0,7.1,0c0,10,0,20.1,0,30.2c-2.3,0-4.7,0-7.1,0C239.1,65.9,239.1,55.9,239.1,45.8z"/>
	<path class="st7" d="M374.6,97.5c0,3.4,0,6.8,0,10.2c-0.8,0-1.6,0-2.3,0c0-5,0-10,0-15.1c0.6,0,1.1,0,1.7,0
		c0.6-0.1,0.9,0.2,1.2,0.7c1.5,2.8,3,5.5,4.5,8.4c0.2-0.3,0.4-0.6,0.5-0.8c1.3-2.3,2.6-4.6,3.8-7c0.5-1,1.1-1.5,2.2-1.3
		c0.3,0.1,0.6,0,1,0c0,5,0,10,0,15c-0.8,0-1.5,0-2.4,0c0-3.5,0-6.9,0-10.3c-0.1,0-0.1,0-0.2-0.1c-0.3,0.5-0.6,1-0.9,1.6
		c-1,1.9-2,3.7-3.1,5.6c-0.5,0.9-1.5,0.9-2,0c-1.3-2.3-2.6-4.7-3.9-7C374.7,97.4,374.6,97.5,374.6,97.5z"/>
	<path class="st8" d="M496,92.6c2.2,0,4.4,0,6.5,0c2.2,0.1,4.1,1.6,4.6,3.8c0.5,2.2-0.4,4.3-2.4,5.4c-0.1,0-0.2,0.1-0.3,0.2
		c1.1,1.8,2.3,3.7,3.5,5.7c-0.9,0-1.6,0-2.4,0c-0.2,0-0.5-0.3-0.7-0.5c-0.9-1.3-1.7-2.6-2.5-4c-0.3-0.6-0.7-0.8-1.3-0.7
		c-0.8,0.1-1.7,0-2.6,0c0,1.8,0,3.5,0,5.2c-0.8,0-1.5,0-2.3,0C496,102.7,496,97.7,496,92.6z M498.4,100.4c1.3,0,2.6,0,3.8,0
		c1.4,0,2.4-1,2.5-2.5c0.1-1.5-0.8-3-2.2-3.1c-1.3-0.1-2.7,0-4.1,0C498.4,96.6,498.4,98.4,498.4,100.4z"/>
	<path class="st8" d="M419,102.5c0,1.8,0,3.5,0,5.2c-0.8,0-1.5,0-2.3,0c0-4.9,0-9.9,0-14.9c2.5,0,5.1-0.2,7.6,0.1
		c1.8,0.2,3.3,2.1,3.5,4.1c0.3,2.2-0.6,3.9-2.8,5.1c1.1,1.8,2.3,3.7,3.5,5.7c-0.9,0-1.6,0.1-2.3,0c-0.3,0-0.6-0.3-0.7-0.6
		c-0.9-1.3-1.7-2.6-2.5-4c-0.3-0.5-0.7-0.7-1.3-0.7C420.8,102.5,420,102.5,419,102.5z M419.1,100.4c1.3,0,2.5,0,3.7,0
		c1.5,0,2.4-0.9,2.6-2.4c0.2-1.4-0.6-2.9-1.9-3.1c-1.5-0.2-3,0-4.5,0C419.1,96.7,419.1,98.5,419.1,100.4z"/>
	<path class="st8" d="M297,102.1c1.1,1.8,2.3,3.7,3.5,5.6c-0.9,0-1.6,0.1-2.3,0c-0.3,0-0.6-0.3-0.8-0.5c-0.9-1.3-1.7-2.6-2.5-4
		c-0.3-0.5-0.6-0.7-1.2-0.7c-0.9,0.1-1.7,0-2.7,0c0,1.8,0,3.4,0,5.2c-0.8,0-1.5,0-2.3,0c0-5,0-9.9,0-15c1.2,0,2.3,0,3.5,0
		c0.9,0,1.9,0,2.8,0c2.3,0,4.2,1.5,4.7,3.7c0.5,2.2-0.4,4.3-2.4,5.5C297.2,101.9,297.1,102,297,102.1z M291.1,100.3
		c0.2,0,0.3,0,0.4,0c1.2,0,2.3,0,3.5,0c1.5,0,2.4-1,2.5-2.6c0.1-1.5-0.9-2.9-2.3-3c-1.3-0.1-2.6,0-4,0
		C291.1,96.6,291.1,98.4,291.1,100.3z"/>
	<path class="st9" d="M279.7,100.3c0,4.2-3.3,7.6-7.3,7.5c-4,0-7.2-3.5-7.2-7.7c0.1-4.2,3.3-7.6,7.4-7.5
		C276.5,92.6,279.7,96.1,279.7,100.3z M272.5,105.7c1.4,0,2.5-0.6,3.4-1.6c1.8-2.1,1.8-5.4,0.1-7.6c-1.8-2.3-5.1-2.4-6.9-0.1
		c-0.7,0.9-1.2,2-1.4,3.1C267.2,102.7,269.5,105.7,272.5,105.7z"/>
	<path class="st7" d="M454.9,105.9c0.4-0.7,0.7-1.3,0.9-1.7c1.7,0.5,3.3,1.1,4.9,1.5c0.7,0.2,1.5,0,2.1-0.3c0.5-0.2,1.1-0.9,1.1-1.4
		c0.1-0.5-0.4-1.3-0.8-1.6c-0.7-0.5-1.5-0.7-2.3-0.9c-0.9-0.3-1.8-0.5-2.7-0.8c-1.5-0.5-2.6-1.4-2.7-3.1c-0.1-1.7,0.5-3.2,2.1-4.1
		c1.7-1,3.5-1.1,5.4-0.6c1.1,0.3,2,0.8,3.2,1.3c-0.4,0.8-0.7,1.4-1.1,2.1c-1.3-1-2.8-1.6-4.5-1.5c-0.5,0-1.1,0-1.4,0.3
		c-0.5,0.5-1,1.1-1.1,1.7c0,0.5,0.5,1.3,1,1.5c1,0.5,2.1,0.7,3.2,1c0.6,0.2,1.3,0.4,1.9,0.6c1.8,0.8,2.6,2,2.6,3.8
		c-0.1,1.9-1.1,3.3-2.9,3.8C460.6,108.4,457.7,107.7,454.9,105.9z"/>
	<path class="st7" d="M179.6,94.3c-0.3,0.6-0.7,1.2-1,1.8c-1.4-1-2.8-1.6-4.5-1.5c-0.4,0-1,0-1.3,0.3c-0.5,0.5-1,1.1-1.2,1.7
		c-0.2,0.7,0.3,1.4,1,1.6c1,0.4,2.1,0.7,3.2,1c0.7,0.2,1.4,0.4,2.1,0.7c1.6,0.7,2.4,1.9,2.3,3.6c0,1.8-0.9,3.1-2.6,3.7
		c-3.3,1.2-6.3,0.4-9.2-1.5c0.4-0.7,0.7-1.3,1.1-2c1.8,1.3,3.7,2,5.9,1.8c0.4,0,0.8-0.1,1.2-0.3c1.2-0.6,1.4-2.1,0.2-2.9
		c-0.6-0.4-1.4-0.6-2.1-0.9c-1-0.3-2-0.6-3-0.9c-1.6-0.5-2.7-1.5-2.7-3.3c-0.1-1.8,0.7-3.2,2.4-4.1C173.8,92,177.4,92.5,179.6,94.3z
		"/>
	<path class="st7" d="M199.2,94.2c-0.4,0.7-0.7,1.3-1.1,1.9c-1.4-1-2.8-1.6-4.5-1.5c-0.5,0-1.1,0.1-1.4,0.3c-0.5,0.4-1,1.1-1,1.6
		c0,0.5,0.5,1.3,0.9,1.5c1,0.5,2.1,0.7,3.2,1.1c0.7,0.2,1.3,0.4,2,0.7c1.8,0.8,2.6,2,2.5,3.8c-0.1,1.8-1.1,3.2-2.9,3.7
		c-3.2,0.9-6.1,0.3-8.9-1.6c0.4-0.7,0.7-1.3,1-1.9c1.2,0.5,2.4,1.1,3.6,1.4c0.9,0.2,1.9,0.2,2.9,0.1c0.8-0.1,1.5-0.5,1.7-1.5
		c0.2-1-0.3-1.6-1.2-2c-0.9-0.4-1.9-0.6-2.9-0.9c-0.6-0.2-1.1-0.4-1.7-0.5c-1.6-0.5-2.7-1.5-2.8-3.4c-0.1-1.8,0.8-3.4,2.5-4.1
		C193.9,92,196.6,92.6,199.2,94.2z"/>
	<path class="st7" d="M226.3,105.8c0.3-0.6,0.7-1.2,1-1.9c1.9,1.4,3.9,2.1,6.3,1.8c1.3-0.2,2.1-1,1.8-2.1c-0.2-0.6-0.8-1.2-1.3-1.4
		c-1-0.5-2.1-0.7-3.2-1c-0.4-0.1-0.9-0.3-1.3-0.4c-1.6-0.5-2.6-1.5-2.7-3.2c-0.1-1.8,0.7-3.3,2.3-4.2c2.3-1.3,6.1-0.8,8.2,1.1
		c-0.3,0.6-0.7,1.2-1,1.8c-1.4-1.1-3-1.6-4.7-1.4c-0.6,0.1-1.3,0.3-1.8,0.7c-1,0.8-0.7,2.3,0.5,2.8c1,0.4,2.1,0.7,3.1,1
		c0.8,0.2,1.5,0.5,2.3,0.8c1.5,0.7,2.2,1.8,2.2,3.5c0,1.7-0.7,3-2.3,3.7C233,108.5,228.5,107.8,226.3,105.8z"/>
	<path class="st7" d="M245.7,105.9c0.4-0.8,0.7-1.4,1.1-2c1.8,1.3,3.7,2,5.9,1.8c0.4,0,0.8-0.1,1.2-0.3c1.2-0.6,1.4-2.1,0.2-2.9
		c-0.7-0.4-1.4-0.7-2.2-0.9c-1-0.3-1.9-0.6-2.9-0.9c-1.6-0.5-2.7-1.5-2.8-3.3c-0.1-1.8,0.7-3.3,2.4-4.1c1.8-0.9,3.7-0.9,5.5-0.3
		c0.9,0.3,1.8,0.8,2.7,1.2c-0.4,0.7-0.7,1.4-1.1,2c-1.4-1.1-3-1.7-4.7-1.4c-0.7,0.1-1.4,0.4-1.9,0.8c-0.9,0.8-0.6,2.2,0.6,2.8
		c1,0.4,2.1,0.7,3.2,1c0.7,0.2,1.3,0.4,2,0.7c1.7,0.7,2.5,1.9,2.5,3.6c0,1.8-0.9,3.2-2.6,3.8C251.6,108.5,248.6,107.8,245.7,105.9z"
		/>
	<path class="st5" d="M439.7,94.8c0,1.5,0,2.9,0,4.3c2.2,0,4.4,0,6.6,0c0,0.7,0,1.3,0,2c-2.2,0-4.3,0-6.6,0c0,1.5,0,3,0,4.6
		c2.6,0,5.2,0,7.8,0c0,0.7,0,1.3,0,2c-3.4,0-6.8,0-10.2,0c0-5,0-9.9,0-15c3.4,0,6.7,0,10,0c0,0.7,0,1.3,0,2.1
		C444.8,94.8,442.3,94.8,439.7,94.8z"/>
	<path class="st5" d="M352.9,92.7c3.4,0,6.7,0,10,0c0,0.7,0,1.3,0,2c-2.5,0-5,0-7.6,0c0,1.5,0,2.9,0,4.3c2.2,0,4.4,0,6.6,0
		c0,0.7,0,1.3,0,2c-2.2,0-4.3,0-6.6,0c0,1.5,0,3,0,4.6c2.6,0,5.1,0,7.8,0c0,0.7,0,1.3,0,2.1c-3.4,0-6.8,0-10.2,0
		C352.9,102.7,352.9,97.8,352.9,92.7z"/>
	<path class="st5" d="M210.9,94.8c0,1.5,0,2.9,0,4.3c2.2,0,4.4,0,6.6,0c0,0.7,0,1.3,0,2c-2.2,0-4.4,0-6.6,0c0,1.6,0,3,0,4.6
		c2.6,0,5.2,0,7.8,0c0,0.7,0,1.4,0,2.1c-3.4,0-6.8,0-10.2,0c0-5,0-9.9,0-15c3.3,0,6.6,0,10,0c0,0.6,0,1.3,0,2
		C216,94.8,213.5,94.8,210.9,94.8z"/>
	<path class="st8" d="M399.5,102.5c0,1.8,0,3.4,0,5.2c-0.8,0-1.5,0-2.3,0c0-5,0-10,0-15c2.3,0,4.5-0.1,6.7,0
		c2.6,0.2,4.4,2.6,4.2,5.2c-0.2,2.7-2.1,4.5-4.8,4.5C402.1,102.5,400.9,102.5,399.5,102.5z M399.6,94.8c0,1.9,0,3.7,0,5.5
		c0.1,0,0.2,0.1,0.3,0.1c1.1,0,2.2,0,3.2,0c1.5,0,2.5-0.9,2.6-2.6c0.1-1.5-0.8-2.9-2.1-3C402.3,94.7,400.9,94.8,399.6,94.8z"/>
	<path class="st10" d="M161.7,107.7c-2.4,0.2-2.4,0.2-3.2-1.9c-0.8-2.1-0.8-2.1-3.1-2.1c-1.1,0-2.6-0.4-3.4,0.2
		c-0.8,0.5-1,2-1.4,3.1c-0.1,0.3-0.2,0.5-0.3,0.8c-0.8,0-1.6,0-2.5,0c0.9-2.2,1.7-4.3,2.5-6.3c1.1-2.7,2.1-5.4,3.2-8.1
		c0.1-0.3,0.6-0.6,0.9-0.6c0.6,0,1.3-0.4,1.6,0.4C157.9,97.9,159.8,102.8,161.7,107.7z M157.2,101.8c-0.8-2.1-1.5-4.1-2.4-6.4
		c-0.9,2.3-1.7,4.3-2.5,6.4C154,101.8,155.5,101.8,157.2,101.8z"/>
	<path class="st10" d="M331.1,107.7c-0.4-1.1-0.9-2.3-1.4-3.4c-0.1-0.3-0.6-0.6-0.9-0.6c-1.5-0.1-2.9,0-4.4,0c-0.5,0-0.8,0.1-1,0.7
		c-0.4,1.1-0.8,2.2-1.3,3.4c-0.8,0-1.6,0-2.5,0c2-5,4-10,5.9-15c2.1-0.1,2.1-0.1,2.8,1.7c1.6,4.1,3.2,8.2,4.8,12.3
		c0.1,0.3,0.2,0.6,0.4,1C332.7,107.7,332,107.7,331.1,107.7z M326.6,95.4c-0.9,2.3-1.7,4.3-2.4,6.4c1.7,0,3.2,0,4.8,0
		C328.2,99.7,327.5,97.7,326.6,95.4z"/>
	<path class="st10" d="M487.6,107.6c-0.1,0-0.2,0.1-0.3,0.1c-2.1,0.1-2.1,0.1-2.9-1.9c-0.8-2.2-0.8-2.2-3.2-2.2
		c-1.1,0-2.5-0.4-3.3,0.2c-0.8,0.5-1,1.9-1.3,3c-0.2,0.8-0.6,1.1-1.4,1c-0.4-0.1-0.9,0-1.5,0c2-5.1,4-10.1,6-15
		c2.1-0.1,2.1-0.1,2.8,1.6c1.6,4.1,3.2,8.2,4.9,12.3C487.4,107,487.5,107.3,487.6,107.6z M478.2,101.8c1.7,0,3.2,0,4.8,0
		c-0.8-2.1-1.5-4.1-2.4-6.4C479.8,97.7,479,99.7,478.2,101.8z"/>
	<path class="st10" d="M540.9,107.7c-0.9,0-1.6,0-2.5,0c-0.4-1.1-0.9-2.1-1.3-3.2c-0.2-0.6-0.5-0.8-1.1-0.8c-1.4,0.1-2.9,0-4.3,0
		c-0.5,0-0.8,0.2-1,0.7c-0.1,0.5-0.3,0.9-0.5,1.4c-0.8,2.1-0.8,2.1-3.3,2c2-5,4-10,5.9-15c2.1-0.1,2.1-0.1,2.8,1.6
		c1.6,4.1,3.2,8.2,4.9,12.3C540.7,107,540.8,107.3,540.9,107.7z M534,95.4c-0.9,2.3-1.7,4.3-2.5,6.3c1.7,0,3.2,0,4.8,0
		C535.6,99.7,534.8,97.7,534,95.4z"/>
	<path class="st4" d="M549.3,107.7c0-5,0-10,0-15c0.8,0,1.5,0,2.3,0c0,4.3,0,8.5,0,12.9c2.7,0,5.4,0,8.1,0c0,0.7,0,1.4,0,2.1
		C556.3,107.7,552.8,107.7,549.3,107.7z"/>
	<path class="st5" d="M516.4,92.7c0.8,0,1.5,0,2.3,0c0,5,0,9.9,0,15c-0.7,0-1.4,0-2.3,0C516.4,102.7,516.4,97.7,516.4,92.7z"/>
	<path class="st5" d="M309,92.7c0.8,0,1.5,0,2.3,0c0,5,0,9.9,0,15c-0.7,0-1.5,0-2.3,0C309,102.7,309,97.8,309,92.7z"/>
	<path class="st11" d="M66,51.1c0-13.6,0-27.1,0-40.7c0.1,0.4,0.2,0.7,0.2,1.1c0,12.8,0,25.7,0,38.5C66.2,50.3,66.1,50.7,66,51.1z"
		/>
	<path class="st12" d="M329,101.8"/>
	<path class="st12" d="M326.6,95.4"/>
	<path class="st12" d="M324.2,101.8"/>
	<path class="st12" d="M480.7,95.4"/>
	<path class="st12" d="M478.2,101.8"/>
	<path class="st12" d="M483,101.8"/>
	<path class="st12" d="M531.5,101.8"/>
	<path class="st12" d="M536.3,101.8"/>
	<path class="st12" d="M534,95.4"/>
</g>
</svg>
